<svg xmlns="http://www.w3.org/2000/svg" viewBox="0 0 64 64"><g data-name="21-Delivery car"><path style="fill:#cb3541" d="M3 39h4v4H3zM63 39v6a2.006 2.006 0 0 1-2 2h-4a5 5 0 0 0-10 0H21v-8z"/><path d="M63 14v25H21V14a2.006 2.006 0 0 1 2-2h38a2.006 2.006 0 0 1 2 2z" style="fill:#febd55"/><path d="M52 42a5 5 0 1 1-5 5 5 5 0 0 1 5-5zm2 5a2 2 0 1 0-2 2 2.006 2.006 0 0 0 2-2z" style="fill:#393d48"/><circle cx="52" cy="47" r="2" style="fill:#c1cfe8"/><path d="M21 39v8h-2a5 5 0 0 0-10 0H3a1.955 1.955 0 0 1-1.41-.59 1.98 1.98 0 0 1 0-2.82A1.955 1.955 0 0 1 3 43h4v-4H3l4.54-5H21z" style="fill:#fc9e20"/><path d="M21 28v6H7.54l4.86-5.35a2.029 2.029 0 0 1 1.48-.65z" style="fill:#edf4fa"/><path d="M14 42a5 5 0 1 1-5 5 5 5 0 0 1 5-5zm2 5a2 2 0 1 0-2 2 2.006 2.006 0 0 0 2-2z" style="fill:#393d48"/><circle cx="14" cy="47" r="2" style="fill:#c1cfe8"/><path style="fill:#c1cfe8" d="M21 34v-6l-6 6h6z"/><path d="M3 43a1.955 1.955 0 0 0-1.41.59 1.98 1.98 0 0 0 0 2.82A1.955 1.955 0 0 0 3 47h6a4.977 4.977 0 0 1 2.029-4H3zM18 34v4a4.983 4.983 0 0 1-2.439 4.274A4.984 4.984 0 0 1 19 47h2V34z" style="fill:#e68c15"/><path d="M36 35a10 10 0 0 1-10-10V12h-3a2.006 2.006 0 0 0-2 2v25h42v-4z" style="fill:#fc9e20"/><path d="M27 39h-6v8h26a4.977 4.977 0 0 1 2.029-4H31a4 4 0 0 1-4-4zM54.971 43A4.977 4.977 0 0 1 57 47h4a2.006 2.006 0 0 0 2-2v-2z" style="fill:#a81e29"/><path d="M14 44a3 3 0 1 0 3 3 3 3 0 0 0-3-3zm0 4a1 1 0 1 1 1-1 1 1 0 0 1-1 1zM52 44a3 3 0 1 0 3 3 3 3 0 0 0-3-3zm0 4a1 1 0 1 1 1-1 1 1 0 0 1-1 1zM14 36h2v2h-2zM32 38h2v2h-2z"/><path d="M61 11h-2v2h2a1 1 0 0 1 1 1v24H36v2h26v5a1 1 0 0 1-1 1h-3.09a6 6 0 1 0-10.37 5H18.46a5.979 5.979 0 0 0 1.45-3H44v-2H22V14a1 1 0 0 1 1-1h30v-2H23a3 3 0 0 0-3 3v19H9.806l3.339-3.673a1 1 0 0 1 .74-.327H18v-2h-4.115a3 3 0 0 0-2.22.981L7.1 33H7v.113l-4.74 5.214A1 1 0 0 0 2 39v3.171A3 3 0 0 0 3 48h5.09a5.979 5.979 0 0 0 1.45 3H1v2h58v-2h-2.54a5.979 5.979 0 0 0 1.45-3H61a3 3 0 0 0 3-3V14a3 3 0 0 0-3-3zM6 40v2H4v-2zm-4 5a1 1 0 0 1 1-1h4a1 1 0 0 0 1-1v-4a1 1 0 0 0-1-1H5.261l2.727-3H20v11h-.09a5.993 5.993 0 0 0-11.82 0H3a1 1 0 0 1-1-1zm8 2a4 4 0 1 1 4 4 4 4 0 0 1-4-4zm38 0a4 4 0 1 1 4 4 4 4 0 0 1-4-4z"/><path d="M55 11h2v2h-2zM61 51h2v2h-2zM31.293 42.707l1.414-1.414L30.414 39l2.293-2.293-1.414-1.414-3 3a1 1 0 0 0 0 1.414zM30.5 24.521l-2.752 1.1A2.789 2.789 0 0 0 28.789 31H32v-2h-3.211a.789.789 0 0 1-.293-1.521l2.752-1.1A2.789 2.789 0 0 0 30.211 21H27v2h3.211a.789.789 0 0 1 .293 1.521zM39 31v-4h1v-2h-1v-3h-2v3h-1v-4h-2v5a1 1 0 0 0 1 1h2v4zM51 31v-6a1 1 0 0 0-1-1h-3v-4h-2v11h2v-5h2v5zM52 24v7h2v-2.814A3.365 3.365 0 0 1 57 26v-2a4.806 4.806 0 0 0-3 1v-1zM58 29h2v2h-2z"/></g></svg>